<svg width="240" height="231" viewBox="0 0 240 231" fill="none" xmlns="http://www.w3.org/2000/svg">
<g clip-path="url(#clip0_70_2)">
<path d="M189.82 92.44C189.82 92.44 180.63 97.04 178.15 104.26C175.67 111.48 174.21 121.33 176.91 122.21C179.61 123.09 188.95 120.31 194.27 112.8C199.6 105.29 202.73 102.44 200.84 98.06C198.94 93.68 193.76 91.71 189.82 92.44Z" fill="white"/>
<path d="M85.14 118.66C83.75 117.53 82.16 117.18 81.58 117.89C81 118.6 81.66 120.09 83.05 121.23C84.43 122.36 86.03 122.71 86.61 122C87.19 121.29 86.53 119.8 85.15 118.67L85.14 118.66Z" fill="white"/>
<path d="M54.24 146.36C54.34 146.41 54.44 146.46 54.54 146.53C55.59 147.21 56.15 148.61 56.19 150.68L58.03 150.64C57.97 147.92 57.13 146.02 55.54 144.99C52.89 143.27 49.25 144.76 49.1 144.82L49.81 146.52C49.81 146.52 50.79 146.13 51.96 146.03C51.25 147.02 50.78 148.56 51.48 150.92L53.24 150.39C52.45 147.72 53.65 146.69 54.25 146.36H54.24Z" fill="white"/>
<path d="M66.5 121.16L68.3 121.55C69.88 114.2 74.46 113.25 74.66 113.21L74.49 112.3L74.33 111.39C74.09 111.43 68.35 112.54 66.5 121.16Z" fill="white"/>
<path d="M173.71 103.11C173.59 104.94 173.02 107.84 172.1 108.57C171.94 108.69 171.83 108.7 171.71 108.69C171.67 108.69 171.59 108.67 171.48 108.51C170.72 107.39 171.13 103.51 171.65 101.12L169.85 100.72C169.61 101.81 168.48 107.37 169.95 109.54C170.31 110.07 170.81 110.41 171.4 110.51C171.53 110.53 171.66 110.54 171.79 110.54C172.31 110.54 172.8 110.36 173.24 110.02C175.11 108.54 175.48 104.11 175.54 103.24L173.7 103.12L173.71 103.11Z" fill="white"/>
<path d="M221.42 167.4L202.92 191.94L202.85 192.04L187.28 230.92H189.26L204.46 192.96L222.38 169.2L238.05 168.18C238.05 168.26 238.05 168.35 238.04 168.45C237.95 170.28 238.18 171.97 239.02 173.6V166.17C238.56 166.29 238.21 166.33 238.17 166.33L221.42 167.42V167.4Z" fill="white"/>
<path d="M151.65 66.8802C153.94 66.8802 155.69 64.9802 155.69 61.9402C155.69 58.2902 153.43 54.4102 150.24 54.4102C147.98 54.4102 146.23 56.2502 146.23 59.3502C146.23 62.9702 148.4 66.8802 151.65 66.8802Z" fill="white"/>
<path d="M122.84 76.3301C122.8 76.4501 122.77 76.5201 122.75 76.5701C122.32 77.8301 121.87 79.1001 121.39 80.3601C121.49 80.3601 121.58 80.3601 121.67 80.3401C121.84 80.3301 122.09 80.3201 122.42 80.3201C122.85 80.3301 123.19 80.3501 123.43 80.3601C123.29 79.6701 123.16 78.9801 123.06 78.2901C122.97 77.6301 122.89 76.9801 122.82 76.3301H122.84Z" fill="white"/>
<path d="M146.93 75.2501C146.9 75.1901 146.86 75.1401 146.8 75.0801V75.0601C146.8 75.0601 146.75 75.0001 146.74 74.9701C146.68 74.9101 146.62 74.8601 146.57 74.8001C146.54 74.7901 146.52 74.7601 146.51 74.7401L146.47 74.7201C146.35 74.6501 146.24 74.5801 146.13 74.5301C145.99 74.4701 145.84 74.4301 145.7 74.4001C145.54 74.3901 145.38 74.3901 145.23 74.4001C145.07 74.4301 144.93 74.4601 144.8 74.5101C144.71 74.5501 144.64 74.6001 144.56 74.6401C144.47 74.7001 144.37 74.7201 144.26 74.7001C144.25 74.7001 144.24 74.7001 144.24 74.7201H144.22C144.16 74.7901 144.12 74.8401 144.09 74.8701C144.06 74.9001 144.03 74.9301 144 74.9601C143.94 75.0501 143.9 75.1101 143.87 75.1501C143.73 75.3501 143.6 75.5901 143.48 75.8601C143.22 76.4901 143.03 77.2601 142.9 78.1601C142.8 78.9601 142.8 79.7401 142.9 80.4801C143 81.2301 143.19 81.9301 143.46 82.5901C143.55 82.7601 143.62 82.9201 143.7 83.0601C143.76 83.1501 143.81 83.2301 143.85 83.3201C143.88 83.3501 143.91 83.3801 143.94 83.4301L143.96 83.4701C144.03 83.5401 144.1 83.6101 144.15 83.6601C144.24 83.7601 144.3 83.8301 144.34 83.8501V83.8301C144.34 83.8301 144.37 83.8601 144.38 83.8701C144.42 83.9001 144.47 83.9301 144.51 83.9601C144.57 83.9901 144.63 84.0201 144.7 84.0501C144.81 84.1101 144.93 84.1401 145.04 84.1601C145.14 84.1701 145.23 84.1701 145.32 84.1601C145.41 84.1501 145.49 84.1201 145.58 84.1001C145.65 84.0601 145.72 84.0101 145.8 83.9701L145.91 83.9101C145.91 83.9101 145.94 83.8801 145.95 83.8701C146.02 83.8101 146.15 83.6801 146.34 83.4601L146.32 83.4801C146.32 83.4801 146.37 83.4201 146.38 83.4201C146.41 83.3801 146.44 83.3301 146.47 83.2901C146.53 83.2001 146.58 83.1101 146.64 83.0101C146.73 82.8501 146.8 82.6901 146.88 82.5101C147.09 81.9801 147.25 81.3801 147.35 80.7201C147.38 80.4501 147.41 80.1601 147.44 79.8601C147.45 79.4701 147.46 78.9101 147.46 78.1801C147.46 77.4901 147.44 76.9701 147.4 76.6101C147.36 76.2501 147.28 75.9301 147.16 75.6401C147.09 75.5101 147.02 75.3801 146.95 75.2501H146.93Z" fill="white"/>
<path d="M102.95 76.3301C102.91 76.4501 102.88 76.5201 102.86 76.5701C102.43 77.8301 101.98 79.1001 101.5 80.3601C101.6 80.3601 101.69 80.3601 101.78 80.3401C101.95 80.3301 102.2 80.3201 102.53 80.3201C102.96 80.3301 103.3 80.3501 103.54 80.3601C103.4 79.6701 103.27 78.9801 103.17 78.2901C103.08 77.6301 103 76.9801 102.93 76.3301H102.95Z" fill="white"/>
<path d="M90.17 55.03C88.06 55.03 85.8 56.84 85.8 61.33C85.8 65.49 87.7 66.88 89.87 66.88C92.61 66.88 94.24 64.53 94.24 60.97C94.24 57.41 92.61 55.03 90.17 55.03Z" fill="white"/>
<path d="M128.34 35.9201C128.34 34.3201 127.04 32.8801 124.93 32.8801C122.61 32.8801 120.98 34.5701 120.62 37.1601L126.86 37.1001C127.82 37.1001 128.34 36.7701 128.34 35.9201Z" fill="white"/>
<path d="M230.83 70.6901L129.76 3.11006C123.56 -1.03994 115.47 -1.03994 109.27 3.11006L8.18999 70.6901C3.06999 74.1101 -9.76585e-06 79.8601 -9.76585e-06 86.0101V172.58C0.0999902 172.53 0.19999 172.48 0.29999 172.43C0.46999 172.35 0.63999 172.26 0.81999 172.18C1.15999 172 1.51999 171.85 1.88999 171.71C2.12999 171.61 2.34999 171.53 2.52999 171.47C2.98999 171.32 3.45999 171.19 3.93999 171.07C5.52999 170.65 7.15999 170.33 8.80999 169.93C7.50999 168.85 6.39999 167.58 5.70999 165.99C4.90999 164.15 4.77999 162.26 5.28999 160.33C5.50999 159.49 6.11999 159.22 6.92999 159.15C9.27999 158.96 11.51 159.5 13.68 160.27C17.47 161.61 21.23 163.02 25 164.39C25.22 164.47 25.48 164.43 26.09 164.46C25.25 163.66 24.69 163.05 24.05 162.54C21.63 160.6 19.61 158.28 17.83 155.76C16.48 153.85 15.13 151.91 14.04 149.85C12.31 146.57 10.98 143.11 10.59 139.37C10.46 138.08 10.34 136.78 10.28 135.48C10.03 130.05 11.32 124.92 13.3 119.93C15.35 114.76 17.9 109.83 21.36 105.48C25.32 100.5 29.91 96.2301 35.79 93.4701C38.97 91.9801 42.27 91.1901 45.7 90.7901C47.25 90.6101 48.82 90.5001 50.38 90.4801C56.21 90.3801 61.76 91.6101 67.06 94.0701C70.5 95.6701 73.61 97.7201 76.44 100.18C69.89 99.4901 61.25 97.6401 61.14 97.6101L59.9 97.3401L60.03 98.6001C60.03 98.6901 60.85 107.67 53.68 112.86L52.66 113.61L53.69 114.36C53.9 114.51 58.81 118.21 57.58 128.94L57.54 129.35L57.81 129.66C57.93 129.8 60.65 132.97 58.7 136.48C57.17 135.83 55.55 135.5 53.86 135.5C47.04 135.5 41.5 141.05 41.5 147.86C41.5 154.67 47.05 160.22 53.86 160.22C58.31 160.22 62.39 157.82 64.58 154.02C68.89 157.86 75.36 163.33 79.23 165.25C76.84 166.91 71.62 170.16 66.39 170.98L64.16 171.33L66 172.64C67.02 173.37 69.68 175.74 69.77 177.95C69.81 178.9 69.36 179.75 68.41 180.54C64.35 183.93 62.08 182.93 61.8 182.78L61.55 182.63H61.5L56.45 180.25L60.66 184.22L60.93 184.47H60.97C62.31 185.59 64.97 188.35 64.41 190.54C63.67 193.4 46 206.23 36.51 195.46C35.64 197.63 34.4 199.26 32.36 200.31C29.46 201.79 24.43 201.12 22.63 197.05C22.52 196.81 22.38 196.58 22.31 196.34C22.18 195.88 22.01 195.79 21.55 196.05C17.75 198.14 13.82 198.04 9.91999 196.44C8.43999 195.83 7.00999 194.97 5.75999 193.97C4.96999 193.34 4.20999 192.69 3.47999 192.01C3.03999 191.6 2.52999 191.1 2.00999 190.56C1.79999 190.35 1.59999 190.13 1.38999 189.91C0.89999 189.39 0.41999 188.86 -0.0100098 188.37V212.5C-0.0100098 222.68 8.23999 230.93 18.42 230.93H40.56C40.43 229.18 40.28 226.9 40.26 226.53C40.13 224.3 40.2 222.06 40.44 219.85C40.82 216.4 41.64 213 42.87 209.76C43.92 207.01 45.4 203.81 47.54 201.73C52.95 201.11 65.22 194.72 66.19 191.01C66.79 188.69 65.33 186.39 63.94 184.81C65.39 184.61 67.29 183.88 69.59 181.97C70.99 180.8 71.67 179.43 71.61 177.89C71.53 175.68 69.86 173.67 68.58 172.43C75.39 170.72 81.45 165.95 81.72 165.74L83.29 164.49L81.33 164.11C78.7 163.61 71.13 157.46 64.93 151.87L63.99 151.03L63.47 152.18C61.77 155.96 58 158.4 53.86 158.4C48.06 158.4 43.34 153.68 43.34 147.88C43.34 142.08 48.06 137.36 53.86 137.36C55.54 137.36 57.14 137.74 58.62 138.5L59.32 138.86L59.78 138.22C62.46 134.49 60.86 130.6 59.45 128.79C60.36 119.9 57.26 115.4 55.65 113.71C61.28 109.05 61.92 102.42 61.92 99.6901C64.95 100.32 73.18 101.92 78.71 102.25C78.98 102.47 79.26 102.68 79.55 102.87C81.38 104.06 83.23 105.23 85.08 106.39C85.61 106.72 86.17 107 86.73 107.27C89.91 108.84 93.07 110.44 96.27 111.94C97.96 112.74 99.76 113.32 101.48 114.04C104.13 115.15 106.88 115.93 109.64 116.73C111.72 117.33 112.62 119.48 111.89 121.53C111.45 122.76 111.14 124.06 110.51 125.18C109.97 126.15 109.14 127.01 108.28 127.74C107.65 128.27 107.55 128.64 107.96 129.29C108.98 130.92 110.39 133.18 110.39 133.18C110 134.89 108.93 136.81 107.73 137.35C104.81 138.68 100.33 136.3 100.28 136.28L99.41 137.9C99.57 137.99 102.58 139.59 105.66 139.59C106.62 139.59 107.59 139.44 108.48 139.03C109.97 138.35 111.02 137.1 111.62 135.31C113.06 137.79 114.54 140.28 115.06 143.12C117.14 154.42 109.39 158.02 109.39 158.02C104.68 161.15 99.07 163.16 92.71 163.99L92.95 165.81C96.27 165.38 99.39 164.63 102.31 163.59C102.05 163.96 101.85 164.36 101.7 164.81C100.73 167.73 99.75 170.66 99.05 173.65C98.53 175.86 98.33 178.17 98.15 180.45C97.94 183.2 97.88 185.97 97.81 188.73C97.76 190.43 98.83 190.5 100.27 191.01C102.5 191.81 104.68 192.67 106.8 193.72C114.21 197.38 120 202.86 125.87 208.59C131.77 214.35 137.38 220.4 142.69 226.7C143.87 228.1 145.07 229.49 146.19 230.94H157.36C160.94 221.42 175.76 181.89 177.2 176.5C177.47 175.5 178.07 173.86 177.73 172.79C177.68 172.64 177.37 172.26 177.37 172.16C177.22 170.28 176.25 168.69 175.11 167.36C173.87 165.91 174.03 163.95 174.24 163.02C182.76 159.92 184.65 159.78 184.71 159.77H185.22L185.49 159.34C185.66 159.08 189.5 152.96 190.73 148.55C191.33 146.43 194.26 140.01 197.51 134.18C203.4 123.62 205.58 123.3 205.81 123.3C206.84 123.3 207.53 123.55 207.85 124.05C208.42 124.96 207.97 126.76 207.28 128.15C206.07 130.58 199.82 144.76 199.56 145.36L198.07 148.74L200.97 146.46C201.03 146.42 206.43 142.17 212.32 138.12C223.09 130.73 226.47 129.99 227.04 130.14C227.54 130.28 227.83 130.46 227.88 130.7C228.14 131.9 226.56 133.35 225.85 134.11C221.22 139.13 216.01 144.88 211.47 149.98L212.75 151.3C212.85 151.21 223.31 142.6 232.46 140.05C232.74 140.04 233.87 140.04 234.31 140.71C235.38 142.35 233.63 144.89 232.33 145.87C230.73 147.07 229.15 148.31 227.6 149.59C224.46 152.18 220.12 155.29 218.48 159.16L217.95 160.42L237.64 160.77C237.64 160.77 238.28 160.81 239.03 161V86.0301C239.03 79.8801 235.96 74.1301 230.84 70.7101L230.83 70.6901ZM159.01 60.5801C159.01 65.3701 155.42 68.5701 150.69 68.5701C145.96 68.5701 142.88 65.2801 142.88 60.7001C142.88 56.1201 146.38 52.7101 151.2 52.7101C156.02 52.7101 159.01 55.9901 159.01 60.5801ZM148.45 78.2401C148.45 78.8901 148.44 79.3901 148.41 79.7501C148.35 80.9101 148.17 81.8901 147.87 82.6801C147.67 83.1801 147.45 83.6101 147.2 83.9501C146.87 84.3901 146.53 84.7201 146.17 84.9201C145.7 85.1801 145.19 85.2401 144.66 85.1101C144.19 85.0001 143.76 84.7501 143.39 84.3801C143.1 84.0801 142.85 83.7001 142.64 83.2401C142.42 82.7801 142.25 82.3101 142.12 81.8201C141.85 80.8301 141.75 79.8301 141.82 78.8301C141.85 78.3401 141.92 77.8101 142.04 77.2401C142.13 76.7501 142.23 76.3201 142.36 75.9501C142.53 75.4601 142.73 75.0401 142.96 74.6801C143.1 74.4501 143.25 74.2601 143.39 74.1001C143.62 73.8701 143.88 73.7301 144.16 73.6901C144.32 73.6001 144.48 73.5401 144.66 73.5001C145.13 73.3701 145.61 73.3601 146.08 73.4801C146.55 73.6001 146.96 73.8201 147.31 74.1501C147.91 74.7401 148.28 75.6101 148.41 76.7501C148.44 77.0701 148.45 77.5701 148.45 78.2601V78.2401ZM133.1 32.2801C134.22 31.8601 136.11 31.5301 137.05 31.5301C137.99 31.5301 138.14 32.0401 138.14 33.1901C138.14 34.2101 138.11 35.8401 138.11 37.9501V40.1501C138.11 43.0101 138.83 44.7301 141.12 44.7301C143.08 44.7301 145.19 43.2501 145.19 39.2101V37.3401C145.19 35.9501 145.1 34.1501 144.74 33.9301C143.17 33.8401 142.72 33.4801 142.72 33.0001C142.72 32.7001 142.96 32.4601 143.41 32.2801C144.52 31.8301 146.48 31.5301 147.45 31.5301C148.35 31.5301 148.54 32.0401 148.54 33.1901C148.54 34.2101 148.51 35.9001 148.51 38.0401V40.9301C148.51 42.4401 148.57 44.0601 148.93 44.2401C150.47 44.3301 150.86 44.6601 150.86 45.0801C150.86 45.3801 150.68 45.6201 150.26 45.8601C149.15 46.4001 147.01 46.8801 146.19 46.8801C145.32 46.8801 145.14 46.3101 145.14 45.2201L145.17 43.4701C144.18 45.7601 142.13 47.0901 139.72 47.0901C137.01 47.0901 134.81 45.4901 134.81 41.3901V37.3201C134.81 35.9601 134.75 34.1301 134.36 33.9101C132.91 33.8201 132.49 33.4301 132.49 32.9801C132.49 32.6801 132.7 32.4401 133.12 32.2601L133.1 32.2801ZM84.44 66.2101C83.99 67.0501 83.29 68.0501 82.66 68.0501C82.3 68.0501 82 67.8101 82 67.4201C82 67.1201 82.18 66.7001 82.24 66.4001C82.42 65.6801 82.57 64.6201 82.57 63.6001V51.8501C82.57 50.6101 82.48 48.8401 82.06 48.6301C80.49 48.5701 80.01 48.2101 80.01 47.7901C80.01 47.4601 80.19 47.2201 80.64 47.0101C81.85 46.4101 84.02 45.9601 84.86 45.9601C85.7 45.9601 85.91 46.5301 85.91 47.6201C85.91 48.7101 85.88 50.2101 85.88 52.3801V56.4501C86.75 54.3101 88.95 52.7701 91.46 52.7701C95.02 52.7701 97.73 55.7501 97.73 60.2101C97.73 65.1501 94.69 68.5601 90.08 68.5601C87.64 68.5601 85.62 67.5701 84.44 66.2401V66.2101ZM95.01 74.6501C95.07 75.1401 95.12 75.7701 95.16 76.5401C95.16 76.6001 95.23 78.0201 95.38 80.8001C95.45 82.0901 95.49 82.8001 95.49 82.9301C95.53 83.7901 95.54 84.5001 95.51 85.0601C95.51 85.2001 95.46 85.3201 95.37 85.4201C95.28 85.5201 95.16 85.5601 95.01 85.5601C94.88 85.5701 94.77 85.5301 94.67 85.4201C94.57 85.3101 94.52 85.1901 94.52 85.0601C94.53 84.4701 94.52 83.7001 94.48 82.7601C94.48 82.6501 94.41 81.2801 94.26 78.6701C94.2 77.4601 94.17 76.7801 94.15 76.6301C94.12 75.8601 94.08 75.2501 94.02 74.8201C93.75 74.8601 93.29 74.9301 92.66 75.0301C92.03 75.1301 91.54 75.2101 91.2 75.2701C91.06 75.3001 90.93 75.2801 90.82 75.2301C90.71 75.1701 90.64 75.0701 90.59 74.9301C90.55 74.8001 90.56 74.6701 90.63 74.5401C90.72 74.4101 90.82 74.3301 90.93 74.3001C91.13 74.2701 91.43 74.2201 91.83 74.1601C92.23 74.1001 92.53 74.0501 92.73 74.0201C92.9 73.9801 93.16 73.9301 93.5 73.8801C93.84 73.8301 94.07 73.7901 94.17 73.7601C94.2 73.7501 94.23 73.7301 94.28 73.7201C94.35 73.7101 94.43 73.7101 94.52 73.7201C96.4 73.4001 97.92 73.1601 99.08 72.9901C99.22 72.9601 99.35 72.9801 99.46 73.0301C99.57 73.0901 99.64 73.1901 99.69 73.3301C99.73 73.4601 99.72 73.5901 99.65 73.7201C99.56 73.8601 99.46 73.9401 99.35 73.9601C98.79 74.0501 98.19 74.1401 97.54 74.2401C96.79 74.3601 95.95 74.4901 95 74.6501H95.01ZM105.55 84.6901C105.48 84.8101 105.38 84.8901 105.25 84.9401C105.16 84.9701 105.08 84.9701 104.99 84.9401C104.9 84.9101 104.83 84.8601 104.76 84.8001C104.7 84.7401 104.65 84.6701 104.62 84.6001C104.39 83.8501 104.18 83.1001 104 82.3401C103.91 82.0201 103.83 81.7001 103.76 81.3701C103.47 81.3601 103.06 81.3401 102.53 81.3301C102.2 81.3301 101.94 81.3301 101.76 81.3501C101.64 81.3501 101.42 81.3701 101.09 81.4101C100.97 81.7301 100.85 82.0301 100.72 82.3101C100.55 82.7701 100.42 83.0901 100.33 83.2801C100.19 83.5801 100.01 83.8701 99.79 84.1401C99.72 84.2301 99.6 84.2801 99.42 84.2901C99.3 84.2901 99.19 84.2401 99.08 84.1401C98.98 84.0501 98.93 83.9401 98.93 83.8001C98.93 83.6901 98.98 83.5601 99.08 83.4301L99.06 83.4501L99.1 83.3901C99.1 83.3901 99.16 83.3001 99.19 83.2601C99.25 83.1701 99.3 83.0901 99.34 83.0001C99.41 82.8601 99.49 82.6901 99.58 82.5001C99.74 82.1301 99.97 81.5501 100.27 80.7601C100.7 79.6501 101.11 78.5501 101.5 77.4401C101.89 76.3401 102.26 75.2201 102.62 74.0801C102.66 73.9401 102.75 73.8401 102.88 73.7801C102.98 73.6501 103.11 73.5901 103.27 73.5901C103.41 73.5801 103.53 73.6201 103.63 73.7301C103.72 73.8401 103.78 73.9601 103.79 74.0901C103.85 75.2401 103.95 76.3901 104.09 77.5601C104.16 78.0501 104.24 78.5401 104.33 79.0201C104.63 80.8101 105.05 82.5801 105.6 84.3201C105.64 84.4501 105.63 84.5701 105.56 84.7001L105.55 84.6901ZM102.5 72.0001C102.53 71.8901 102.61 71.7801 102.74 71.7001C102.78 71.6701 102.82 71.6401 102.85 71.6101L102.87 71.5901C102.87 71.5901 102.89 71.5601 102.93 71.5501L102.95 71.5301C102.95 71.5301 103.03 71.4701 103.06 71.4401C103.19 71.3401 103.31 71.2401 103.43 71.1401C103.69 70.9401 103.94 70.7201 104.18 70.4901C104.41 70.2801 104.65 70.2801 104.89 70.4901C104.98 70.5801 105.02 70.6901 105.02 70.8501C105.02 71.0101 104.98 71.1201 104.89 71.2101C104.39 71.6701 103.84 72.1201 103.23 72.5701C103.14 72.6401 103.01 72.6601 102.84 72.6101C102.73 72.5801 102.63 72.5101 102.56 72.3901C102.47 72.2801 102.45 72.1501 102.5 72.0001ZM103.37 68.2601C100.96 68.2601 99.57 67.9601 99.57 67.1501C99.57 66.5501 100.17 66.3701 101.32 66.3101C101.68 66.1601 101.71 65.1601 101.71 63.1501V58.9301C101.71 57.5401 101.65 55.8301 101.29 55.6401C99.75 55.5501 99.36 55.2201 99.36 54.8001C99.36 54.4701 99.51 54.2301 99.96 54.0201C101.02 53.4501 103.18 52.9701 104.03 52.9701C104.93 52.9701 105.09 53.5401 105.09 54.6301C105.09 55.6501 105.03 57.3401 105.03 59.5101V63.1601C105.03 65.1801 105.06 66.1701 105.39 66.3201C106.57 66.4101 107.17 66.5601 107.17 67.1601C107.17 68.0001 105.69 68.2701 103.37 68.2701V68.2601ZM107.91 33.6901C106.16 33.6901 104.29 34.9601 104.02 38.3901V41.6801C104.02 43.6101 104.05 44.6901 104.41 44.8401C105.74 44.9301 106.34 45.0801 106.34 45.6801C106.34 46.2801 105.52 46.6101 104.1 46.7301C104.91 46.9701 105.36 47.5901 105.36 48.4201C105.36 49.7801 104.15 50.3501 103.01 50.3501C101.74 50.3501 100.96 49.6301 100.96 48.5101C100.96 47.5901 101.54 47.0401 102.26 46.7901C99.76 46.7901 98.41 46.4801 98.41 45.6801C98.41 45.0801 98.98 44.9001 100.31 44.8401C100.64 44.6901 100.7 43.4201 100.7 41.6801V38.2701C100.7 35.4101 100.07 33.6901 97.75 33.6901C95.88 33.6901 93.86 35.1701 93.86 39.2101V41.6801C93.86 43.7001 93.89 44.6901 94.22 44.8401C95.58 44.9301 96.15 45.0801 96.15 45.6801C96.15 46.5201 94.64 46.7901 92.2 46.7901C89.76 46.7901 88.37 46.4901 88.37 45.6801C88.37 45.0801 89 44.9001 90.15 44.8401C90.48 44.6901 90.54 43.7901 90.54 41.6801V37.4901C90.54 36.1301 90.48 34.3901 90.09 34.1701C88.55 34.0801 88.16 33.7501 88.16 33.3301C88.16 33.0301 88.31 32.7901 88.76 32.5501C89.87 32.0101 92.01 31.5301 92.83 31.5301C93.73 31.5301 93.88 32.0701 93.88 33.1901V35.0001C94.84 32.6501 96.86 31.3201 99.27 31.3201C101.41 31.3201 103.25 32.4101 103.82 35.1501C104.81 32.7101 106.89 31.3201 109.43 31.3201C111.97 31.3201 114.13 32.9201 114.13 37.0201V41.6901C114.13 43.7701 114.13 44.6401 114.49 44.8501C115.7 44.9401 116.27 45.0901 116.27 45.6901C116.27 46.5301 114.79 46.8001 112.5 46.8001C109.94 46.8001 108.52 46.5001 108.52 45.6901C108.52 45.0901 109.12 44.9101 110.42 44.8501C110.75 44.7001 110.81 43.3701 110.81 41.6901V38.2801C110.81 35.3001 110.12 33.7001 107.89 33.7001L107.91 33.6901ZM108.59 60.8501C108.59 56.3301 111.75 52.7101 116.12 52.7101C119.77 52.7101 122.12 55.3001 122.12 57.2001C122.12 58.1601 121.55 58.8301 120.64 58.8301C119.49 58.8301 119.16 57.7101 118.56 56.4201C118.11 55.4601 117.41 54.3401 115.7 54.3401C113.29 54.3401 111.78 56.6301 111.78 59.5501C111.78 63.1401 113.74 65.5801 116.72 65.5801C118.86 65.5801 120.13 64.3101 120.94 63.5001C121.3 63.1401 121.51 62.9301 121.84 62.9301C122.2 62.9301 122.44 63.2001 122.44 63.7101C122.44 64.2801 122.08 65.1901 121.38 65.9701C120.36 67.2101 118.37 68.5601 115.62 68.5601C111.46 68.5601 108.57 65.3401 108.57 60.8401L108.59 60.8501ZM117.29 84.1601C117.28 84.3501 117.23 84.5201 117.14 84.6801C117.11 84.7501 117.05 84.8501 116.95 84.9801C116.82 85.1401 116.65 85.3001 116.43 85.4501C116.07 85.6901 115.65 85.8501 115.16 85.9201C114.87 85.9501 114.63 85.9201 114.43 85.8301C114.2 85.7401 114 85.5901 113.83 85.3801C113.66 85.1501 113.54 84.8001 113.49 84.3301C113.46 84.1901 113.48 84.0601 113.53 83.9501C113.59 83.8401 113.69 83.7701 113.83 83.7201C113.96 83.6801 114.09 83.6901 114.22 83.7601C114.35 83.8501 114.43 83.9501 114.46 84.0601C114.49 84.3201 114.53 84.5201 114.59 84.6601C114.6 84.7001 114.62 84.7401 114.63 84.7701C114.64 84.7701 114.66 84.7801 114.67 84.8101C114.68 84.8201 114.7 84.8401 114.71 84.8501L114.75 84.8701L114.77 84.8901C114.77 84.8901 114.82 84.8901 114.83 84.9101C114.92 84.9101 115.01 84.9101 115.11 84.8901C115.25 84.8801 115.4 84.8401 115.54 84.7801C115.61 84.7401 115.68 84.7001 115.76 84.6701C115.8 84.6401 115.85 84.6101 115.89 84.5801C115.9 84.5701 115.92 84.5601 115.93 84.5601C115.93 84.5501 115.93 84.5401 115.94 84.5401C115.94 84.5401 115.95 84.5401 115.95 84.5201V84.5401C116.04 84.4701 116.11 84.3901 116.17 84.3001H116.18C116.18 84.3001 116.18 84.2801 116.21 84.2601C116.22 84.2301 116.24 84.2001 116.25 84.1701C116.26 84.1301 116.28 84.0901 116.29 84.0601V83.8401C116.26 83.6801 116.21 83.5201 116.14 83.3401C116.1 83.2401 116.05 83.1501 116.01 83.0601C115.94 82.9601 115.87 82.8601 115.8 82.7601C115.79 82.7301 115.76 82.7001 115.74 82.6701L115.72 82.6301V82.6101C115.72 82.6101 115.7 82.6101 115.7 82.5901C115.69 82.5801 115.67 82.5501 115.66 82.5301C115.5 82.3601 115.32 82.1701 115.12 81.9701C114.93 81.8001 114.54 81.4701 113.94 80.9801C113.42 80.5801 113.04 80.2301 112.78 79.9301C112.38 79.4901 112.08 79.0001 111.88 78.4901C111.48 77.4401 111.48 76.3901 111.9 75.3501C112.1 74.8201 112.39 74.3601 112.76 73.9701C113.1 73.6001 113.51 73.3001 113.97 73.0701C114.46 72.8301 114.97 72.6801 115.52 72.6201C115.78 72.5801 116.01 72.5701 116.23 72.6001C116.65 72.6401 116.93 72.7701 117.09 72.9901C117.19 73.1101 117.24 73.2201 117.24 73.3301C117.24 73.4601 117.19 73.5801 117.09 73.7001C117 73.8001 116.89 73.8501 116.75 73.8501C116.59 73.8501 116.47 73.8001 116.38 73.7001C116.37 73.6701 116.35 73.6501 116.34 73.6401H116.32C116.32 73.6401 116.25 73.6101 116.19 73.6001C116 73.5901 115.79 73.6001 115.54 73.6201C115.24 73.6601 114.94 73.7401 114.66 73.8601C114.46 73.9501 114.26 74.0501 114.08 74.1801C114.04 74.2101 113.99 74.2401 113.93 74.2701C113.93 74.2801 113.91 74.3101 113.87 74.3301C113.77 74.4201 113.68 74.4901 113.61 74.5501C113.52 74.6401 113.44 74.7301 113.35 74.8301C113.34 74.8401 113.32 74.8701 113.3 74.8901C113.28 74.9201 113.26 74.9401 113.25 74.9501C113.26 74.9501 113.27 74.9501 113.27 74.9301V74.9501C113.27 74.9501 113.22 74.9901 113.21 75.0101C113.08 75.2001 112.97 75.4001 112.89 75.6101C112.77 75.8801 112.7 76.1701 112.65 76.4701C112.61 76.7701 112.61 77.0801 112.65 77.4001C112.69 77.7001 112.77 77.9901 112.89 78.2601C112.98 78.4501 113.07 78.6301 113.17 78.8001C113.2 78.8401 113.23 78.8901 113.28 78.9301C113.29 78.9601 113.31 78.9801 113.32 78.9901C113.33 79.0001 113.35 79.0201 113.36 79.0301C113.45 79.1501 113.5 79.2101 113.51 79.2201C113.75 79.4901 114.08 79.8001 114.5 80.1501C114.57 80.2101 114.72 80.3301 114.94 80.5101C115.16 80.6901 115.33 80.8301 115.43 80.9201C115.54 81.0101 115.67 81.1401 115.84 81.2901C116 81.4401 116.15 81.5901 116.28 81.7301C116.58 82.0901 116.82 82.4301 116.99 82.7401C117.25 83.2901 117.36 83.7501 117.31 84.1401L117.29 84.1601ZM125.44 84.6901C125.37 84.8101 125.27 84.8901 125.14 84.9401C125.05 84.9701 124.97 84.9701 124.88 84.9401C124.79 84.9101 124.72 84.8601 124.65 84.8001C124.59 84.7401 124.54 84.6701 124.51 84.6001C124.28 83.8501 124.07 83.1001 123.89 82.3401C123.8 82.0201 123.72 81.7001 123.65 81.3701C123.36 81.3601 122.95 81.3401 122.42 81.3301C122.09 81.3301 121.83 81.3301 121.65 81.3501C121.53 81.3501 121.31 81.3701 120.98 81.4101C120.86 81.7301 120.74 82.0301 120.61 82.3101C120.44 82.7701 120.31 83.0901 120.22 83.2801C120.08 83.5801 119.9 83.8701 119.68 84.1401C119.61 84.2301 119.49 84.2801 119.31 84.2901C119.2 84.2901 119.08 84.2401 118.97 84.1401C118.87 84.0501 118.82 83.9401 118.82 83.8001C118.82 83.6901 118.87 83.5601 118.97 83.4301L118.95 83.4501L118.99 83.3901C118.99 83.3901 119.05 83.3001 119.08 83.2601C119.14 83.1701 119.19 83.0901 119.23 83.0001C119.3 82.8601 119.38 82.6901 119.47 82.5001C119.63 82.1301 119.86 81.5501 120.16 80.7601C120.59 79.6501 121 78.5501 121.39 77.4401C121.78 76.3401 122.15 75.2201 122.51 74.0801C122.55 73.9401 122.64 73.8401 122.77 73.7801C122.87 73.6501 123 73.5901 123.16 73.5901C123.26 73.5901 123.35 73.6101 123.42 73.6501C123.49 73.6901 123.55 73.7501 123.59 73.8301C123.63 73.9101 123.66 73.9901 123.68 74.0801C123.74 75.2301 123.84 76.3801 123.98 77.5501C124.05 78.0401 124.13 78.5301 124.22 79.0101C124.52 80.8001 124.94 82.5701 125.49 84.3101C125.53 84.4401 125.52 84.5601 125.45 84.6901H125.44ZM123.56 67.1501C123.56 66.5501 124.16 66.3701 125.31 66.3101C125.67 66.1601 125.73 65.2601 125.73 63.1501V51.8501C125.73 50.4601 125.61 48.8101 125.22 48.6301C123.62 48.5401 123.17 48.2101 123.17 47.7901C123.17 47.4901 123.33 47.2601 123.67 47.0701C119.94 46.6501 117.49 43.6901 117.49 39.5301C117.49 34.6501 120.93 31.3001 125.11 31.3001C128.91 31.3001 131.29 33.9501 131.29 36.5701C131.29 37.9001 130.63 38.8301 129.45 38.8301H120.53C120.71 42.0501 122.58 44.1601 125.59 44.1601C127.7 44.1601 129.03 43.1001 129.9 42.2301C130.2 41.9601 130.44 41.7201 130.74 41.7201C131.13 41.7201 131.37 41.9901 131.37 42.5001C131.37 43.0401 131.04 43.8301 130.38 44.5501C129.93 45.0901 129.32 45.6201 128.57 46.0601C128.97 46.2801 129.07 46.8001 129.07 47.6001C129.07 48.6501 129.04 50.2501 129.04 52.3901V56.4601C130.03 54.1101 132.14 52.7501 134.62 52.7501C137.33 52.7501 139.53 54.3501 139.53 58.4501V63.1501C139.53 65.2301 139.53 66.1001 139.89 66.3101C141.07 66.4001 141.67 66.5501 141.67 67.1501C141.67 67.9901 140.19 68.2601 137.9 68.2601C135.34 68.2601 133.92 67.9601 133.92 67.1501C133.92 66.5501 134.52 66.3701 135.82 66.3101C136.18 66.1601 136.21 64.8001 136.21 63.1501V59.7101C136.21 56.5201 135.31 55.1601 133.11 55.1601C131.15 55.1601 129.04 56.6401 129.04 60.6801V63.1501C129.04 65.1701 129.07 66.1601 129.4 66.3101C130.76 66.4001 131.3 66.5501 131.3 67.1501C131.3 67.9901 129.82 68.2601 127.35 68.2601C124.88 68.2601 123.55 67.9601 123.55 67.1501H123.56ZM137.07 86.1901C137.01 86.3101 136.91 86.3801 136.77 86.4301C136.76 86.4401 136.73 86.4501 136.71 86.4501C136.61 86.4901 136.49 86.5001 136.37 86.4701C136.24 86.4401 136.14 86.3601 136.07 86.2301C136 86.1001 135.98 85.9701 136.03 85.8401C136.04 85.7801 136.07 85.7301 136.09 85.6701C135.95 84.8501 135.79 84.0401 135.62 83.2401C135.29 81.5501 134.92 79.8701 134.52 78.2001C134.1 76.5501 133.66 74.8901 133.19 73.2301C133.15 73.1001 133.16 72.9801 133.23 72.8601C133.3 72.7501 133.4 72.6701 133.53 72.6201C133.66 72.5701 133.78 72.5901 133.91 72.6601C134.03 72.7301 134.11 72.8301 134.16 72.9601C134.43 73.8901 134.69 74.8301 134.93 75.7601C135.36 77.4101 135.76 79.0701 136.14 80.7501C136.33 81.6101 136.51 82.4701 136.68 83.3301C136.68 83.3201 136.7 83.2001 136.74 82.9901C137.03 81.3701 137.42 79.6001 137.92 77.6701C138.22 76.4901 138.7 74.7401 139.34 72.4201C139.37 72.3301 139.42 72.2601 139.48 72.1901C139.54 72.1301 139.62 72.0801 139.71 72.0601C139.8 72.0401 139.88 72.0401 139.97 72.0701C140.1 72.1001 140.2 72.1701 140.27 72.3001C140.34 72.4201 140.36 72.5501 140.31 72.6801C139.95 74.0001 139.68 74.9901 139.49 75.6501C138.93 77.6701 138.49 79.4301 138.16 80.9201C138 81.7001 137.83 82.5801 137.64 83.5701C137.47 84.5201 137.3 85.2501 137.12 85.7701V85.8101C137.15 85.9501 137.13 86.0801 137.08 86.1801L137.07 86.1901ZM127.52 85.8101C127.41 85.7301 127.34 85.6301 127.29 85.5001C127.26 85.3701 127.29 85.2501 127.38 85.1201C127.47 85.0001 127.57 84.9301 127.7 84.9201C127.77 84.9101 127.84 84.8901 127.92 84.8801C127.98 84.0301 128.04 83.1901 128.11 82.3601C128.24 80.8401 128.42 79.2201 128.65 77.5201C128.95 75.3801 129.08 73.7801 129.04 72.7201C129.04 72.6101 129.1 72.4901 129.21 72.3801C129.31 72.2901 129.43 72.2601 129.58 72.2701C129.72 72.2701 129.84 72.3301 129.92 72.4401C129.99 72.5301 130.03 72.6501 130.05 72.8101C130.08 73.6001 130.04 74.5001 129.92 75.5201C129.88 75.9201 129.78 76.7201 129.62 77.9101C129.5 78.7401 129.4 79.5501 129.32 80.3201C129.16 81.7701 129.03 83.2301 128.93 84.7101C130.55 84.4501 131.89 84.4301 132.93 84.6501C133.07 84.6901 133.19 84.7601 133.27 84.8401C133.36 84.9301 133.39 85.0501 133.38 85.2101C133.38 85.3401 133.32 85.4501 133.21 85.5301C133.1 85.6301 132.97 85.6701 132.84 85.6601C132.24 85.5301 131.57 85.4701 130.84 85.4901C130.15 85.5301 129.17 85.6701 127.89 85.9001C127.75 85.9301 127.62 85.9001 127.51 85.8201L127.52 85.8101ZM174.31 168.98C175.15 170.07 175.42 170.73 175.55 172.25C172.45 173.65 169.3 174.97 166.33 176.6C163.55 178.12 161.08 180.16 159.37 182.95C157.69 185.68 155.67 188.13 153.21 190.19C151.2 191.87 148.97 193.28 146.43 193.97C143.45 194.79 140.48 194.54 137.82 192.88C136.23 191.89 135.67 191.15 136.35 189.08C136.59 188.34 136.96 187.64 137.34 186.96C137.44 186.77 137.52 186.61 137.58 186.48C138.46 186.5 139.63 186.45 141 186.17C143.66 185.63 147.57 184.08 151.09 179.82C152.59 178 153.68 176.49 154.64 175.16C157.74 170.84 159.3 168.68 169.37 164.82C170.41 164.42 171.38 164.05 172.28 163.72C172.13 165.28 172.88 167.13 174.31 168.98ZM227.52 128.35C226.11 127.98 222.31 129.02 211.28 136.59C208 138.85 204.86 141.16 202.71 142.79C204.7 138.3 208.1 130.63 208.94 128.96C209.37 128.09 210.69 125.1 209.42 123.06C208.96 122.32 207.97 121.44 205.87 121.44H205.81C200.49 121.48 189.84 144.96 188.98 148.03C187.98 151.59 185.02 156.59 184.17 157.97C182.9 158.19 179.09 159.12 168.71 163.1C158.13 167.16 156.36 169.62 153.14 174.09C152.2 175.4 151.13 176.88 149.67 178.65C143.65 185.92 134.19 184.98 133.28 184.64C130.9 183.77 130.11 181.69 131.38 179.5C132.13 178.2 133.06 176.98 134.05 175.85C136.73 172.77 139.97 170.5 143.06 167.89C144.72 166.49 146.32 165.01 147.84 163.45C149.28 161.98 150.54 160.2 152.09 158.89C155.43 156.07 159.34 154.05 163.21 152.07C167.19 150.04 170.47 147.47 173.66 144.32C176.79 141.23 179.26 137.59 181.76 133.99C181.88 133.82 181.97 133.63 182.05 133.43C182.25 132.94 182.11 132.65 181.55 132.55C177.7 131.91 173.85 131.25 170 130.59C168.97 130.41 167.95 130.19 166.92 130.05C165.06 129.8 163.28 130.3 161.53 130.79C161.21 130.88 160.89 130.96 160.57 131.04C163.15 128.36 163.07 124.23 162.49 121.96L160.7 122.41C160.77 122.69 162.49 129.7 156.97 131.58C154.98 131.69 153 131.49 151.03 130.9C148.86 130.25 146.64 129.53 145.01 127.77C143.42 126.34 141.83 124.59 140.94 122.64C139.38 119.26 142.42 117.3 145.13 116.01C146.53 115.34 147.97 114.73 149.39 114.13C152.85 112.66 156.32 111.25 159.43 109.1C161.16 107.9 162.37 106.32 163.03 104.32C163.89 101.72 164.6 99.1101 166.17 96.8401C169.08 92.6301 174.58 90.4701 179.32 89.1001C184.23 87.6801 190.6 86.6901 195.62 88.1001C200.14 89.3701 204.27 92.2001 207.32 95.7401C207.93 96.4501 208.44 97.2601 208.87 98.0901C209.35 99.0101 210.03 99.6701 210.9 100.2C214.16 102.23 216.53 105.04 218.54 108.29C220.03 110.7 221.28 113.21 222.58 115.71C223.8 118.07 225.12 120.38 226.18 122.81C227.03 124.75 227.78 126.75 228.51 128.75C228.24 128.59 227.91 128.45 227.51 128.34L227.52 128.35ZM218.5 144.84C220.62 142.45 223.38 139.4 225.58 137.09C226.84 135.77 229.09 133.88 229.63 131.83C230.4 133.98 231.13 136.14 231.89 138.29C227.21 139.61 222.32 142.35 218.5 144.84ZM220.92 158.61C223.52 155 230.87 149.21 234.23 146.74C234.27 146.93 234.32 147.13 234.37 147.33C234.91 149.39 235.4 151.47 235.84 153.56C236.21 155.33 236.51 157.11 236.8 158.9L220.93 158.62L220.92 158.61Z" fill="white"/>
</g>
<defs>
<clipPath id="clip0_70_2">
<rect width="239.02" height="230.91" fill="white"/>
</clipPath>
</defs>
</svg>
