<?xml version="1.0" standalone="no"?>
<!DOCTYPE svg PUBLIC "-//W3C//DTD SVG 20010904//EN"
 "http://www.w3.org/TR/2001/REC-SVG-20010904/DTD/svg10.dtd">
<svg version="1.0" xmlns="http://www.w3.org/2000/svg"
 width="240.000000pt" height="240.000000pt" viewBox="0 0 240.000000 240.000000"
 preserveAspectRatio="xMidYMid meet">
<metadata>
Created by potrace 1.14, written by Peter Selinger 2001-2017
</metadata>
<g transform="translate(0.000000,240.000000) scale(0.100000,-0.100000)"
fill="#000000" stroke="none">
<path d="M1140 2341 c-26 -8 -991 -648 -1063 -704 -78 -61 -76 -48 -77 -556 0
-249 4 -451 8 -451 5 0 23 5 41 11 31 11 40 24 20 31 -6 2 -12 22 -13 43 -1
38 1 40 29 41 17 0 57 -10 89 -23 33 -13 64 -23 69 -23 5 0 -12 23 -37 51
-120 134 -134 285 -40 457 61 112 145 186 245 215 93 27 225 4 309 -53 l45
-31 -45 6 c-25 3 -62 9 -82 14 -37 9 -38 8 -38 -20 0 -38 -22 -89 -48 -113
l-21 -19 19 -27 c13 -18 21 -48 23 -82 1 -29 5 -55 9 -58 7 -5 11 -28 9 -47
-1 -8 -17 -12 -46 -11 -95 2 -157 -89 -117 -172 38 -78 150 -94 202 -29 15 18
16 18 41 -4 26 -21 65 -53 102 -80 17 -12 14 -15 -35 -40 -29 -15 -64 -27 -78
-27 l-24 0 22 -16 c28 -19 44 -48 36 -67 -9 -25 -56 -39 -89 -27 -28 10 -28
10 9 -30 34 -38 36 -43 24 -62 -20 -30 -109 -78 -155 -83 -39 -4 -92 11 -105
29 -4 6 -17 -1 -32 -17 -32 -35 -71 -35 -106 -2 -23 22 -31 24 -53 16 -46 -18
-100 0 -155 53 l-33 31 1 -145 c2 -166 13 -198 83 -247 38 -27 47 -28 179 -31
76 -2 138 0 139 5 0 4 2 40 4 79 4 88 39 183 75 201 14 6 47 22 73 34 27 12
62 33 79 47 26 22 29 30 24 63 -5 31 -3 39 13 44 39 12 61 65 35 86 -20 16
-18 26 9 33 12 3 44 19 71 36 l49 31 -39 20 c-22 10 -61 39 -89 64 -27 24 -54
45 -58 45 -4 0 -18 -11 -30 -25 -47 -54 -122 -48 -166 14 -56 79 31 182 126
150 15 -6 23 -3 27 7 8 21 8 69 -1 77 -3 4 -8 30 -10 59 -2 29 -10 63 -18 75
-14 20 -13 26 10 59 13 20 27 52 31 71 6 32 9 34 34 30 15 -3 51 -9 80 -13 33
-4 77 -21 118 -45 35 -21 101 -52 146 -69 44 -18 91 -36 104 -41 32 -12 25
-77 -11 -101 -8 -4 -7 -15 1 -33 16 -34 15 -40 -4 -60 -12 -11 -26 -14 -52 -9
-29 5 -34 4 -26 -6 19 -20 82 -17 98 5 13 18 14 17 30 -13 56 -108 -6 -205
-156 -242 -27 -7 -48 -16 -48 -21 0 -9 23 -6 74 8 15 4 18 2 11 -13 -20 -51
-27 -86 -32 -160 l-5 -81 67 -32 c37 -17 86 -45 108 -63 52 -40 207 -195 266
-266 l44 -53 56 3 55 3 33 85 c110 291 165 449 166 477 0 17 -8 47 -18 67 -11
19 -16 38 -12 42 4 4 30 15 59 25 58 19 51 9 147 210 51 107 102 176 121 164
17 -11 12 -29 -40 -139 -27 -59 -44 -104 -37 -99 7 4 41 28 77 54 121 87 210
134 210 110 0 -5 -21 -33 -47 -62 -87 -93 -113 -124 -113 -131 0 -13 10 -9 43
16 50 37 156 88 172 82 23 -8 -1 -50 -47 -82 -44 -31 -112 -103 -104 -111 3
-3 51 -7 106 -9 l100 -4 0 395 c0 446 1 442 -77 502 -21 16 -266 182 -545 368
-468 312 -510 338 -555 341 -26 2 -59 0 -73 -5z m-120 -316 c15 -13 20 -13 49
1 30 15 34 15 52 -2 14 -13 19 -30 19 -71 0 -29 5 -53 10 -53 6 0 10 -4 10 -8
0 -4 -16 -9 -35 -10 -19 -2 -35 2 -35 8 0 5 5 10 10 10 11 0 14 69 4 94 -7 19
-35 21 -52 4 -14 -14 -16 -95 -2 -100 5 -1 7 -13 4 -25 -8 -30 -44 -31 -44 -2
0 11 -4 17 -10 14 -5 -3 -10 -2 -10 4 0 5 4 12 9 15 7 5 8 64 2 99 -2 11 -36
8 -49 -5 -15 -15 -16 -98 -1 -98 5 0 7 -4 4 -10 -3 -5 -19 -8 -36 -6 -31 4
-53 16 -28 16 19 0 20 101 1 108 -7 2 -10 8 -6 13 7 12 54 12 54 0 0 -6 12 -3
28 5 33 17 32 17 52 -1z m276 -6 c8 -6 14 -22 14 -36 0 -23 -3 -24 -47 -22
-50 3 -65 -10 -42 -37 13 -16 43 -15 84 1 19 8 19 7 3 -11 -14 -16 -17 -39
-17 -122 0 -56 5 -102 10 -102 5 0 9 -4 9 -10 0 -5 -16 -10 -35 -10 -19 0 -35
5 -35 10 0 6 4 10 9 10 4 0 9 37 9 83 l1 82 -40 28 c-38 28 -43 37 -41 87 3
54 76 84 118 49z m97 -107 c5 -7 17 -10 28 -7 10 4 19 2 19 -4 0 -16 -46 -24
-69 -11 -17 9 -21 20 -21 65 0 30 -4 55 -10 55 -20 0 -9 19 13 22 20 3 22 -2
27 -52 3 -30 9 -61 13 -68z m92 66 c-1 -32 4 -60 12 -69 12 -15 11 -17 -13
-23 -14 -4 -29 -5 -32 -2 -3 3 -4 33 -3 66 1 36 -3 60 -9 60 -20 0 -10 19 13
22 32 6 33 4 32 -54z m-625 -135 c0 -37 3 -44 12 -35 16 16 60 15 82 -1 10 -7
19 -29 20 -51 5 -53 -28 -90 -75 -87 -83 7 -75 -4 -74 98 1 75 -2 93 -14 98
-13 5 -14 7 -1 15 36 23 50 12 50 -37z m190 -88 c0 -37 4 -65 10 -65 6 0 10
-4 10 -10 0 -5 -16 -10 -35 -10 -19 0 -35 5 -35 10 0 6 4 10 8 10 12 0 14 78
2 99 -11 21 -4 31 22 31 16 0 18 -9 18 -65z m155 51 c12 -9 16 -19 11 -32 -7
-18 -8 -17 -26 6 -32 43 -70 29 -70 -25 0 -20 8 -39 21 -51 25 -23 19 -23 52
-1 21 14 27 15 27 3 0 -39 -70 -54 -105 -23 -24 22 -28 34 -26 75 3 51 72 80
116 48z m177 -5 c8 -11 13 -40 13 -65 -1 -25 2 -46 7 -46 4 0 8 -4 8 -10 0 -5
-15 -10 -34 -10 -34 0 -34 1 -22 25 8 15 10 39 7 62 -6 34 -10 38 -34 35 -27
-3 -38 12 -14 21 27 11 57 6 69 -12z m187 -7 c12 -15 21 -39 21 -53 0 -28 -31
-70 -53 -72 -7 0 -22 -2 -35 -3 -13 -2 -34 7 -47 20 -52 48 -17 134 55 134 30
0 43 -6 59 -26z m-274 -230 c-6 -58 -5 -66 9 -61 8 3 17 3 20 -1 3 -4 -8 -9
-23 -10 l-27 -2 10 70 c12 89 21 92 11 4z m94 4 c-7 -29 -13 -56 -14 -60 0 -3
-3 -9 -7 -13 -3 -4 -12 20 -18 52 -7 32 -15 63 -18 68 -3 6 -1 6 4 2 5 -5 14
-27 20 -50 l10 -42 14 52 c8 29 16 51 18 48 2 -2 -2 -28 -9 -57z m-409 43
c-19 -5 -25 -14 -25 -34 1 -15 -3 -27 -7 -27 -4 0 -8 11 -8 25 0 17 -6 25 -17
26 -22 2 34 17 62 17 15 0 14 -2 -5 -7z m173 -1 c-28 -12 -30 -41 -3 -65 23
-21 27 -55 5 -55 -8 0 -15 5 -15 11 0 5 5 7 10 4 15 -9 12 11 -3 27 -30 30
-38 56 -21 72 8 9 23 16 32 15 12 0 11 -3 -5 -9z m328 -16 c1 -8 2 -20 3 -26
3 -23 -16 -68 -28 -68 -35 0 -50 75 -21 104 17 17 44 11 46 -10z m-441 -1 c1
-10 3 -36 5 -58 3 -25 2 -31 -3 -17 -9 30 -18 32 -36 7 -14 -18 -14 -17 -4 18
6 20 15 37 19 37 5 0 6 7 3 15 -4 8 -1 15 5 15 6 0 11 -8 11 -17z m206 -39 c9
-47 8 -53 -3 -38 -7 10 -13 29 -14 43 -1 24 -2 23 -10 -6 -5 -18 -14 -35 -20
-39 -7 -4 -9 -1 -6 7 3 8 11 31 18 52 7 20 15 37 18 37 4 0 11 -25 17 -56z
m-290 -40 c1 -9 0 -13 -4 -10 -3 4 -7 14 -8 22 -1 9 0 13 4 10 3 -4 7 -14 8
-22z m1039 -61 c16 -9 66 -52 110 -97 64 -65 90 -100 129 -179 27 -54 47 -99
45 -101 -2 -2 -21 -11 -41 -19 -41 -17 -173 -102 -183 -117 -3 -5 -10 -10 -15
-10 -9 0 9 48 47 128 12 25 13 38 5 57 -29 64 -109 -26 -186 -210 -54 -127
-55 -129 -133 -154 -138 -47 -190 -77 -245 -147 -28 -36 -63 -71 -79 -80 -42
-21 -107 -28 -124 -14 -27 23 -15 50 47 108 34 31 86 80 116 109 30 29 84 69
121 89 36 21 82 51 101 67 46 40 113 128 103 137 -14 12 -153 32 -178 26 -23
-6 -24 -5 -15 20 13 33 13 64 0 64 -5 0 -10 -13 -10 -30 0 -42 -32 -72 -70
-65 -66 12 -114 46 -132 95 -10 27 9 43 105 88 91 43 109 59 127 115 22 69 73
107 177 131 67 15 134 11 178 -11z m318 -463 c4 -16 -6 -25 -54 -49 -32 -16
-59 -28 -59 -25 0 10 94 103 100 99 4 -3 10 -14 13 -25z m41 -157 c4 -21 9
-46 12 -56 5 -16 -2 -17 -74 -15 -68 2 -78 5 -69 18 14 22 111 99 118 94 4 -2
10 -21 13 -41z m-617 -162 l23 -39 -65 -32 c-49 -24 -75 -45 -107 -87 -51 -67
-83 -92 -130 -102 -40 -9 -98 9 -98 31 0 16 17 43 27 44 57 4 104 37 158 109
16 22 36 46 45 53 14 12 108 60 120 61 3 1 15 -17 27 -38z"/>
<path d="M1222 2008 c-20 -20 -14 -28 21 -28 40 0 51 8 36 27 -14 16 -41 17
-57 1z"/>
<path d="M870 1781 c-15 -29 -12 -77 5 -91 12 -10 21 -10 40 -2 21 10 25 19
25 51 0 30 -5 43 -19 51 -28 15 -39 13 -51 -9z"/>
<path d="M1488 1803 c-27 -7 -34 -61 -10 -92 49 -66 103 -8 63 67 -12 22 -28
30 -53 25z"/>
<path d="M1442 1598 c-15 -15 -16 -74 -1 -84 25 -15 46 52 26 81 -10 12 -15
13 -25 3z"/>
<path d="M1020 1560 c0 -5 5 -10 11 -10 5 0 7 5 4 10 -3 6 -8 10 -11 10 -2 0
-4 -4 -4 -10z"/>
<path d="M1880 1413 c-58 -38 -91 -79 -106 -129 -19 -66 -23 -113 -13 -141 8
-22 10 -22 54 -8 25 7 61 25 80 40 39 29 111 130 116 161 5 30 -19 64 -56 80
-43 18 -45 18 -75 -3z"/>
<path d="M1697 1333 c-21 -20 3 -96 27 -87 18 7 38 61 26 69 -4 3 -13 -9 -19
-25 -14 -42 -24 -37 -19 10 3 38 -1 48 -15 33z"/>
<path d="M700 1208 c-22 -24 -36 -65 -26 -75 3 -3 10 7 16 23 6 16 23 39 38
51 21 18 23 23 10 23 -10 0 -27 -10 -38 -22z"/>
<path d="M815 1170 c-8 -12 22 -39 43 -40 19 0 10 20 -15 37 -15 10 -23 11
-28 3z"/>
<path d="M500 900 c-10 -6 -11 -10 -2 -10 6 0 12 -9 12 -19 0 -11 5 -23 10
-26 6 -3 10 3 10 14 0 31 16 33 30 3 11 -23 14 -24 18 -9 5 22 -24 57 -47 57
-9 0 -23 -5 -31 -10z"/>
<path d="M2278 680 c-36 -3 -68 -7 -70 -10 -3 -3 -15 -21 -28 -40 -13 -19 -27
-37 -30 -40 -4 -3 -33 -41 -65 -85 -47 -64 -74 -118 -136 -273 -43 -106 -73
-192 -66 -189 6 2 46 89 88 193 71 179 81 197 165 307 83 109 91 117 124 118
19 0 54 2 77 4 36 2 43 0 46 -19 3 -15 5 -12 6 10 1 34 5 33 -111 24z"/>
</g>
</svg>
